<svg xmlns:svg="http://www.w3.org/2000/svg" xmlns="http://www.w3.org/2000/svg" xmlns:xlink="http://www.w3.org/1999/xlink" width="343.75" height="174.69" id="svg4408" version="1.1"><defs id="defs4410"><radialGradient xlink:href="#linearGradient4285" id="radialGradient4380" gradientUnits="userSpaceOnUse" gradientTransform="matrix(0.8827395,0.48060715,-0.37543493,0.68956787,32.102868,-11.121154)" cx="76.31" cy="46.82" fx="76.31" fy="46.82" r="113.13"/><linearGradient id="linearGradient4285"><stop offset="0" id="stop4287" style="stop-color:#a8d12a;stop-opacity:1"/><stop offset="1" id="stop4289" style="stop-color:#0f820e;stop-opacity:1"/></linearGradient></defs><metadata id="metadata4414"/><g id="layer1" transform="translate(-34.37436,-102.51225)"><g transform="matrix(1.5193341,0,0,1.5193341,20.467895,97.622279)" id="g4373"><path id="path4275" d="M56.81 43.53C32.61 36.97-5.79 75.18 15.22 103.58 26.97 119.28 45.09 119.86 64.82 116.6 107.46 108.89 159.25 69.97 235.4 107.33 147.71 42.89 93.71 113.03 37.19 88.27 23.61 79.14 22.63 56.24 56.81 43.53z" fill="url(#radialGradient4380)"/><path id="path4135" d="m16.28 64.22c-7.92 11.79-10.52 26.55-1.06 39.34 11.76 15.71 29.86 16.29 49.59 13.03 12.8-2.31 26.45-7.44 41.31-12.47-1.15-0.7-7.06 0.13-20.62 3.56C12.11 126.25 13.03 81.78 16.28 64.22z" fill="#7dbb22"/><path id="path3126" d="M121.78 3.22C118.69 3.3 107.86 24.45 112 31.63c8.45 14.63 27.78 26.22 34.16 36.97l-10.31-5.81-6.5 6.66-0.84-3.56-2.62 1.41-3.66-1.34-8.31-0.25c-1.05-0.81 10.16-5.78 8.06-10.59-1.05-2.4-14.46-2.49-14.84-11.56l-9.03 0.5C102.06 41.76 102.79 39.14 110 37.25 109.93 37.28 106.46 22.21 100.63 24.5 99.5 44.03 46.57 63.49 29.69 79.06c0 0 0 0.09 0 0.09 1.46 3.66 4.09 6.83 7.5 9.13 56.31 24.67 110.13-44.84 197.25 18.38-26.81-43.95-46.35-23.75-85.03-85.22 0.24 3.79-6.5 13.91-7.47 15.63-6.22-3.14-16.86-23.38-19.47-33.16-0.13-0.48-0.37-0.7-0.69-0.69zM120.13 11.63c28.71 46.92 46.84 49.89 48.19 57.34-8.64-5.33-14.09-10.97-23.66-10.12-6.18-3.26-14.01-19.01-21.16-33.75l-3.37 1.09-1.5-5.12-4.56 1.72L120.13 11.63zM101.03 34.25c0.02 0 0 0.03 0 0.06l-2.94 7.34-7.06 5.19 4.41 1.47C74.83 65.14 52.37 68.01 52.19 68.06 89.35 50.7 100.49 34.32 101.03 34.25z" clip-path="none" fill="#663818"/></g></g></svg>